<svg width="100" height="100" viewBox="0 0 100 100" fill="none" xmlns="http://www.w3.org/2000/svg">
<rect width="100" height="100" rx="20" fill="#00BFFF"/>
<path d="M29.875 61.8125C28.8055 59.9652 28.0034 58.0694 27.4687 56.125C26.934 54.1805 26.6666 52.1875 26.6666 50.1458C26.6666 43.6319 28.927 38.0902 33.4479 33.5208C37.9687 28.9513 43.4861 26.6666 50 26.6666H50.5104L45.8437 22L49.927 17.9166L61.5937 29.5833L49.927 41.25L45.8437 37.1666L50.5104 32.5H50C45.1388 32.5 41.0069 34.2135 37.6041 37.6406C34.2013 41.0677 32.5 45.2361 32.5 50.1458C32.5 51.4097 32.6458 52.6493 32.9375 53.8645C33.2291 55.0798 33.6666 56.2708 34.25 57.4375L29.875 61.8125ZM50.0729 82.0833L38.4062 70.4166L50.0729 58.75L54.1562 62.8333L49.4895 67.5H50C54.8611 67.5 58.993 65.7864 62.3958 62.3593C65.7986 58.9323 67.5 54.7638 67.5 49.8541C67.5 48.5902 67.3541 47.3507 67.0625 46.1354C66.7708 44.9201 66.3333 43.7291 65.75 42.5625L70.125 38.1875C71.1944 40.0347 71.9965 41.9305 72.5312 43.875C73.0659 45.8194 73.3333 47.8125 73.3333 49.8541C73.3333 56.368 71.0729 61.9097 66.552 66.4791C62.0312 71.0486 56.5138 73.3333 50 73.3333H49.4895L54.1562 78L50.0729 82.0833Z" fill="white"/>
</svg>
