<svg width="50" height="50" viewBox="0 0 50 50" fill="none" xmlns="http://www.w3.org/2000/svg">
<path d="M14.5833 45.8333C13.4374 45.8333 12.4565 45.4253 11.6405 44.6093C10.8246 43.7934 10.4166 42.8125 10.4166 41.6666C10.4166 40.5208 10.8246 39.5399 11.6405 38.7239C12.4565 37.9079 13.4374 37.5 14.5833 37.5C15.7291 37.5 16.71 37.9079 17.526 38.7239C18.3419 39.5399 18.7499 40.5208 18.7499 41.6666C18.7499 42.8125 18.3419 43.7934 17.526 44.6093C16.71 45.4253 15.7291 45.8333 14.5833 45.8333ZM35.4166 45.8333C34.2707 45.8333 33.2898 45.4253 32.4739 44.6093C31.6579 43.7934 31.2499 42.8125 31.2499 41.6666C31.2499 40.5208 31.6579 39.5399 32.4739 38.7239C33.2898 37.9079 34.2707 37.5 35.4166 37.5C36.5624 37.5 37.5433 37.9079 38.3593 38.7239C39.1753 39.5399 39.5832 40.5208 39.5832 41.6666C39.5832 42.8125 39.1753 43.7934 38.3593 44.6093C37.5433 45.4253 36.5624 45.8333 35.4166 45.8333ZM12.8124 12.5L17.8124 22.9166H32.3957L38.1249 12.5H12.8124ZM10.8333 8.33329H41.5624C42.361 8.33329 42.9687 8.6892 43.3853 9.401C43.802 10.1128 43.8194 10.8333 43.4374 11.5625L36.0416 24.8958C35.6596 25.5902 35.1475 26.1284 34.5051 26.5104C33.8628 26.8923 33.1596 27.0833 32.3957 27.0833H16.8749L14.5833 31.25H39.5832V35.4166H14.5833C13.0208 35.4166 11.8402 34.7309 11.0416 33.3593C10.243 31.9878 10.2083 30.625 10.9374 29.2708L13.7499 24.1666L6.24992 8.33329H2.08325V4.16663H8.85408L10.8333 8.33329Z" fill="black"/>
</svg>
