<svg width="100" height="100" viewBox="0 0 100 100" fill="none" xmlns="http://www.w3.org/2000/svg">
<rect width="100" height="100" rx="20" fill="#00BFFF"/>
<path d="M35.4167 73.3333C32.9862 73.3333 30.9202 72.4826 29.2188 70.7812C27.5174 69.0798 26.6667 67.0139 26.6667 64.5833H19.375L20.6875 58.75H28.9271C29.7535 57.8264 30.7257 57.1093 31.8438 56.5989C32.9618 56.0885 34.1528 55.8333 35.4167 55.8333C36.6806 55.8333 37.8716 56.0885 38.9896 56.5989C40.1077 57.1093 41.0799 57.8264 41.9063 58.75H54.0834L60.2084 32.5H28.2709L28.5625 31.2604C28.8542 29.8993 29.5226 28.7934 30.5677 27.9427C31.6129 27.092 32.8403 26.6666 34.25 26.6666H67.5L64.8021 38.3333H73.3334L82.0834 50L79.1667 64.5833H73.3334C73.3334 67.0139 72.4827 69.0798 70.7813 70.7812C69.0799 72.4826 67.0139 73.3333 64.5834 73.3333C62.1528 73.3333 60.0868 72.4826 58.3855 70.7812C56.6841 69.0798 55.8334 67.0139 55.8334 64.5833H44.1667C44.1667 67.0139 43.316 69.0798 41.6146 70.7812C39.9132 72.4826 37.8473 73.3333 35.4167 73.3333ZM61.448 52.9166H75.5209L75.8125 51.3854L70.4167 44.1666H63.4896L61.448 52.9166ZM60.0625 33.0104L60.2084 32.5L54.0834 58.75L54.2292 58.2395L56.7084 47.5937L60.0625 33.0104ZM16.4584 53.8645L17.9167 48.0312H33.9584L32.5 53.8645H16.4584ZM22.2917 43.2187L23.75 37.3854H42.7084L41.25 43.2187H22.2917ZM35.4167 67.5C36.2431 67.5 36.9358 67.2204 37.4948 66.6614C38.0539 66.1024 38.3334 65.4097 38.3334 64.5833C38.3334 63.7569 38.0539 63.0642 37.4948 62.5052C36.9358 61.9461 36.2431 61.6666 35.4167 61.6666C34.5903 61.6666 33.8976 61.9461 33.3386 62.5052C32.7796 63.0642 32.5 63.7569 32.5 64.5833C32.5 65.4097 32.7796 66.1024 33.3386 66.6614C33.8976 67.2204 34.5903 67.5 35.4167 67.5ZM64.5834 67.5C65.4098 67.5 66.1025 67.2204 66.6615 66.6614C67.2205 66.1024 67.5 65.4097 67.5 64.5833C67.5 63.7569 67.2205 63.0642 66.6615 62.5052C66.1025 61.9461 65.4098 61.6666 64.5834 61.6666C63.757 61.6666 63.0643 61.9461 62.5052 62.5052C61.9462 63.0642 61.6667 63.7569 61.6667 64.5833C61.6667 65.4097 61.9462 66.1024 62.5052 66.6614C63.0643 67.2204 63.757 67.5 64.5834 67.5Z" fill="white"/>
</svg>
