<svg width="100" height="100" viewBox="0 0 100 100" fill="none" xmlns="http://www.w3.org/2000/svg">
<rect width="100" height="100" rx="20" fill="#00BFFF"/>
<path d="M45.5357 58.9285H54.4643L52.753 49.3303C53.7451 48.8343 54.5263 48.115 55.0967 47.1726C55.6672 46.2301 55.9524 45.1884 55.9524 44.0476C55.9524 42.4107 55.3696 41.0094 54.2039 39.8437C53.0382 38.678 51.6369 38.0952 50 38.0952C48.3631 38.0952 46.9618 38.678 45.7961 39.8437C44.6305 41.0094 44.0476 42.4107 44.0476 44.0476C44.0476 45.1884 44.3329 46.2301 44.9033 47.1726C45.4737 48.115 46.255 48.8343 47.247 49.3303L45.5357 58.9285ZM50 79.7619C43.1052 78.0257 37.4132 74.0699 32.9241 67.8943C28.435 61.7187 26.1905 54.8611 26.1905 47.3214V29.1666L50 20.238L73.8095 29.1666V47.3214C73.8095 54.8611 71.565 61.7187 67.0759 67.8943C62.5868 74.0699 56.8949 78.0257 50 79.7619ZM50 73.5119C55.1587 71.8749 59.4246 68.6011 62.7976 63.6904C66.1707 58.7797 67.8572 53.3234 67.8572 47.3214V33.2589L50 26.5624L32.1429 33.2589V47.3214C32.1429 53.3234 33.8294 58.7797 37.2024 63.6904C40.5754 68.6011 44.8413 71.8749 50 73.5119Z" fill="white"/>
</svg>
